# File created by Blade
# Date/Time:  Wed Apr 08 17:35:25 2015
# Frame Rate: 120.000 fps
#------------------------------------------------------
:FULLY-SPECIFIED
:DEGREES
2331
root 10.944750 38.361673 4.578926 178.175084 -47.534291 -136.323519
Spine -15.708915 1.458745 -1.618152
Head 33.009413 -0.104185 28.053213
LeftShoulder -7.429754 18.449869 19.255036
LeftArm 20.419221 21.656630 -72.131697
LeftForeArm 15.225923 -0.000000 28.241230
LeftHand -14.585589 -0.000000 -8.343306
LeftHandThumb1 -26.253704 0.000000 33.147579
RightShoulder -37.726059 -47.102477 21.165326
RightArm 48.687377 -9.294508 60.627466
RightForeArm 12.794490 0.000000 12.665483
RightHand -2.197100 0.000000 25.742933
RightHandThumb1 -24.326973 -0.000000 -32.862282
LeftUpLeg -47.551438 37.698593 -3.268715
LeftLeg 10.290199 -0.000000 -0.000000
LeftFoot -8.520400 13.061491 -5.015864
LeftToeBase 11.582881 -0.000000 -0.000000
RightUpLeg -60.980606 -0.412906 6.214201
RightLeg 130.468173 -0.000000 -0.000000
RightFoot 41.277848 0.352678 26.132736
RightToeBase 24.785705 -0.000000 -0.000000
2332
root 10.949376 38.361122 4.589629 178.382746 -47.485445 -136.418215
Spine -15.752863 1.442382 -1.593243
Head 33.103393 0.079578 27.964084
LeftShoulder -7.429056 18.470728 19.236162
LeftArm 20.461323 21.548910 -72.233520
LeftForeArm 15.196834 -0.000000 27.932697
LeftHand -14.499186 -0.000000 -8.291858
LeftHandThumb1 -26.253704 0.000000 33.147579
RightShoulder -37.657832 -47.070286 21.025967
RightArm 48.635720 -9.149954 60.619143
RightForeArm 13.438414 -0.000000 12.770221
RightHand -2.165036 -0.000000 26.057099
RightHandThumb1 -24.326973 -0.000000 -32.862282
LeftUpLeg -47.740666 37.765232 -3.494397
LeftLeg 10.248458 -0.000000 -0.000000
LeftFoot -8.458135 13.032036 -4.916361
LeftToeBase 11.505035 -0.000000 -0.000000
RightUpLeg -61.140111 -0.736018 7.487097
RightLeg 130.428633 -0.000000 -0.000000
RightFoot 41.299357 0.103680 26.384322
RightToeBase 24.814084 -0.000000 -0.000000
2333
root 10.954403 38.363517 4.597655 178.551543 -47.459545 -136.448323
Spine -15.816840 1.392606 -1.522531
Head 33.216999 0.256907 27.892668
LeftShoulder -7.417652 18.482534 19.221605
LeftArm 20.446181 21.428432 -72.367659
LeftForeArm 15.227769 0.000000 27.677195
LeftHand -14.524046 -0.000000 -8.242402
LeftHandThumb1 -26.253704 0.000000 33.147579
RightShoulder -37.620651 -47.074869 20.928923
RightArm 48.638310 -9.024666 60.573185
RightForeArm 14.091220 0.000000 12.816836
RightHand -2.105022 -0.000000 26.328440
RightHandThumb1 -24.326973 -0.000000 -32.862282
LeftUpLeg -47.916678 37.775619 -3.639929
LeftLeg 10.199958 -0.000000 -0.000000
LeftFoot -8.371554 13.030820 -4.839332
LeftToeBase 11.415057 -0.000000 -0.000000
RightUpLeg -61.296777 -1.099429 8.806359
RightLeg 130.350898 -0.000000 -0.000000
RightFoot 41.136958 -0.248985 26.880212
RightToeBase 25.147998 -0.000000 -0.000000
2334
root 10.959182 38.366460 4.605674 178.711410 -47.402209 -136.493905
Spine -15.848680 1.367909 -1.464104
Head 33.304213 0.415758 27.831736
LeftShoulder -7.416158 18.488009 19.211317
LeftArm 20.410778 21.309141 -72.503546
LeftForeArm 15.255738 -0.000000 27.487981
LeftHand -14.606362 -0.000000 -8.230623
LeftHandThumb1 -26.253704 0.000000 33.147579
RightShoulder -37.561998 -47.073871 20.827596
RightArm 48.616989 -8.849181 60.595988
RightForeArm 14.678247 -0.000000 12.850797
RightHand -2.094714 -0.000000 26.480690
RightHandThumb1 -24.326973 -0.000000 -32.862282
LeftUpLeg -48.043012 37.793944 -3.746786
LeftLeg 10.155013 -0.000000 -0.000000
LeftFoot -8.287851 13.041364 -4.798452
LeftToeBase 11.249791 -0.000000 -0.000000
RightUpLeg -61.442866 -1.466934 10.123109
RightLeg 130.232121 -0.000000 -0.000000
RightFoot 41.066056 -0.668881 27.430427
RightToeBase 23.599423 -0.000000 -0.000000
2335
root 10.961727 38.368373 4.611453 178.820832 -47.364667 -136.542536
Spine -15.825749 1.347963 -1.414724
Head 33.397426 0.534414 27.765055
LeftShoulder -7.387217 18.474637 19.216707
LeftArm 20.381061 21.261272 -72.605144
LeftForeArm 15.218929 0.000000 27.308087
LeftHand -14.669865 -0.000000 -8.178994
LeftHandThumb1 -26.253704 0.000000 33.147579
RightShoulder -37.505481 -47.081425 20.731398
RightArm 48.579785 -8.671637 60.648596
RightForeArm 15.179443 -0.000000 12.883024
RightHand -2.051452 -0.000000 26.632230
RightHandThumb1 -24.326973 -0.000000 -32.862282
LeftUpLeg -48.057274 37.744931 -3.749852
LeftLeg 10.102159 -0.000000 -0.000000
LeftFoot -8.238242 13.139924 -4.712471
LeftToeBase 11.237164 -0.000000 -0.000000
RightUpLeg -61.554555 -1.914922 11.474344
RightLeg 130.075783 -0.000000 -0.000000
RightFoot 40.977704 -0.895269 27.504819
RightToeBase 23.710015 -0.000000 -0.000000
